<svg xmlns="http://www.w3.org/2000/svg" width="33" height="31.795" viewBox="0 0 33 31.795">
  <path id="Icon_youtube" d="M33.36,9.475a5.175,5.175,0,0,0-2.918-4.024C27.869,4.5,17.55,4.5,17.55,4.5s-10.319,0-12.893.951A5.175,5.175,0,0,0,1.74,9.475,81.242,81.242,0,0,0,1.05,20.43a81.242,81.242,0,0,0,.69,10.955,5.064,5.064,0,0,0,2.918,3.96c2.574.951,12.893.951,12.893.951s10.319,0,12.893-.951a5.064,5.064,0,0,0,2.918-3.96,81.242,81.242,0,0,0,.69-10.955,81.242,81.242,0,0,0-.69-10.955ZM14.175,27.153V13.706L22.8,20.43l-8.625,6.723Z" transform="translate(-1.05 -4.5)" fill="#fff"/>
</svg>
